/* XPM */
static char *_59aafb92fea4f4dee5317b067da11b3QaBtCJ8bpF3X3xrB[] = {
/* columns rows colors chars-per-pixel */
"64 64 134 2 ",
"   c #334015",
".  c #384615",
"X  c #3C4A17",
"o  c #364419",
"O  c #3A471A",
"+  c #3D4C1B",
"@  c #3F501B",
"#  c #3F4F20",
"$  c #414F1C",
"%  c #44531D",
"&  c #48571E",
"*  c #46591E",
"=  c #4A5A1F",
"-  c #505F1E",
";  c #424F21",
":  c #465521",
">  c #485721",
",  c #475921",
"<  c #4C5B24",
"1  c #495C25",
"2  c #4B5C25",
"3  c #4A5F24",
"4  c #4D5C25",
"5  c #4E5D24",
"6  c #4C5E24",
"7  c #4D5F25",
"8  c #4F5E25",
"9  c #4C5D26",
"0  c #4E5D26",
"q  c #4D5E27",
"w  c #4B5B22",
"e  c #4E5F28",
"r  c #505E21",
"t  c #505E23",
"y  c #535E22",
"u  c #505F24",
"i  c #505F26",
"p  c #505F24",
"a  c #505F28",
"s  c #4A6020",
"d  c #4C6021",
"f  c #4E6121",
"g  c #4C6023",
"h  c #4E6022",
"j  c #4F6123",
"k  c #4F6222",
"l  c #4E6223",
"z  c #4D6124",
"x  c #4E6024",
"c  c #4F6125",
"v  c #4F6324",
"b  c #4E6225",
"n  c #4E6026",
"m  c #4F6326",
"M  c #4E6124",
"N  c #506021",
"B  c #506022",
"V  c #516123",
"C  c #526023",
"Z  c #506323",
"A  c #526223",
"S  c #526621",
"D  c #526523",
"F  c #516025",
"G  c #536124",
"H  c #526025",
"J  c #506224",
"K  c #516325",
"L  c #526224",
"P  c #536324",
"I  c #536325",
"U  c #516027",
"Y  c #526126",
"T  c #506226",
"R  c #516327",
"E  c #536227",
"W  c #516424",
"Q  c #526525",
"!  c #506427",
"~  c #526426",
"^  c #536527",
"/  c #536626",
"(  c #556524",
")  c #546425",
"_  c #546725",
"`  c #546426",
"'  c #556526",
"]  c #556527",
"[  c #576726",
"{  c #566627",
"}  c #526325",
"|  c #516824",
" . c #536827",
".. c #566A25",
"X. c #546926",
"o. c #566927",
"O. c #556926",
"+. c #586925",
"@. c #586827",
"#. c #596A27",
"$. c #516029",
"%. c #526128",
"&. c #506228",
"*. c #516329",
"=. c #546129",
"-. c #546328",
";. c #526428",
":. c #536529",
">. c #556429",
",. c #566628",
"<. c #576728",
"1. c #546429",
"2. c #586629",
"3. c #52682A",
"4. c #556828",
"5. c #566929",
"6. c #576A28",
"7. c #576C2B",
"8. c #566929",
"9. c #586829",
"0. c #586B29",
"q. c #59692A",
"w. c #596D28",
"e. c #5B6C28",
"r. c #596C2A",
"t. c #586D2A",
"y. c #5D6E2A",
"u. c #596C2C",
"i. c #5A6F2C",
"p. c #5E6E2D",
"a. c #5A6C2A",
"s. c #5E712F",
"d. c #5D702A",
"f. c #61732C",
/* pixels */
"+ & w % % % = = t = = w w & , w & % X w t w , & & & + z _ D , u : & , , ;.7.w O./ @ % z O.q $ u i : > , , @ % , $ % = , =.& D = ",
"Y t l , w w O.* w w.q t , Y * % % % w w & & , & q ) : ;.l / +.t % % % % 3 w O.) = , % v w Y ( w t & = w % , * , $ % G X & % 7.s ",
"u B q , 3 l w @ $ Y u t ,.%.% O @ * , q : ; > w q & % , B Y w t g & , / d.= Y w , , % q $ % Y > % q % , X % = - , = =.$ w q B w ",
"% , g w w v w @ % = w t : % % + w = = O.% $ / ) q & = w = w < =.g , , , i.Y , w % , & , & > w , = & > B l % % + $ % = t =.G ( w ",
"% 1 , 2 * / B Y @ % B Y 1 % : 3 * & % = ) , , l % : 6.: : = % < 1 a : q Y 7.%.= > & =./ w %.g , w , : & ) ) % X $ % w = B & = l ",
"6., % q ) ) w : z , z , % = = w l , , t ) & % & # w , % > w : : % % % : v w > % $ $ = / B ) , , * & % + w & @ * $ = & w D , * w ",
"= % & : w % $ % 2 + , , $ % * l Y & w Y / % $ = % > Y w Y w & t > % , > $ w O + B u : u l / % % , w $ X % % % % % $ w w w.w % * ",
", w * = w & % & & , : , > O $ > $ q ) q z @ % , q % , w , % < : < i q.< > ; ; , t % < , 1 / 6., % w : * w w B w w > Y Y , : D / ",
"> < & : : / w = , w % + % + $ % , w & & v , , B y.w w Y =.> , =.=.Y =.% w < % < = Y & t = , * w ; + , : & + + , =.O.u.;.: % / l ",
"$ $ : % 2 , ) Y > $ % % % = > & > > ,.2 l w % = $ = Y ,.q.( , & & w w t w w & t p.t G y.= S q Y q & & * % < $ % * Y d.Y w w w =.",
": w w & + + + % w w % , = : & > % > w q 1 % % $ $ t z w w Y < w % , % , z , * Y ) , & X % = * w l q < $ & : * , w & 6.u = w ) w ",
"B t > % % $ % % & , w , $ + & > > , $ w > > & & & w z l = w u : + w / +.w % % w =., w * % > , l %.& X o & , * = t t Y q & & * l ",
"w | , t & & $ , % O & : $ % & B % 3 @ % & 2.% < t : $ + & u % + + % > < : + % w l % , ;.@ % z w = > < $ & & q w , Y u u w t & % ",
"= s < w w & O % > & < % , w % ;.X.% % l $ & $ % % $ > > t y.w : O O % % z & w w = s , w z z w 1 , , =.> 1 w B =.Y , Y w Y i.w , ",
"2.= = ( t t + , u w > $ % , @ w w @ : = t w $ % % : =.= 2.a.2.w $ + % $ , > $ & % & + : : v q , % $ % : @ / & w = ,., ) z q Y / ",
"u w w u w > % < < > % : $ + %.%.& g w Y - % . % w 2.& % % % a t > < = u w $ = , 1 l : + = z 1 : : > < w % * * q , w > : % $ $ : ",
"$ w : , w < %.< l / , ;.w + @ 3 , l , & > + O 1 w g % % % , >.< 1 w t , w u > u w : w , = u w & & < w Y % % % < =.> $ 1 t $ : % ",
"q y , l u & w % %.> , ) D 2 @ % : % 1 $ & % < u * w , , $ = : > l ) , % < , > w g / l * t u % < > $ $ : % w % < u : % u u > $ > ",
"=.& % > % w ) % t % 1 = , =.w = : , &., f.: t & : : ) , & w t a.t w $ & > w u u v d./ & > $ % w q 1 % : u & Y > > $ % : > > = $ ",
"% < t > = G , $ > , & : & , w B * % % % 3 , : % @ + = w w w u u = t w > < $ w & O.l w w < > % , & % t +.=.= B > % > : , % % w t ",
", w = q y.2 w & & Y & g % $ w , % 3 X % % , = & $ & % w D w.O.w & - w w & w t ( / , > , , w % & + = 6.i.w s % w > w u : : , % u ",
"u < w > $ w & $ % * % w % $ w % + % @ = + = w = + > % t , B l % % , z & w ,.w ) : + % > q Y =.= $ = %.: w Y % + 1 % % : % z % > ",
"u > > < < % : = @ * % w w % * * w w & w & & > = $ w w , Y % w % $ $ = > w t & w $ + X % w Y & w % % = g $ $ w < < : , & & w % , ",
"w $ % q & B Y B * w = & = l g 2 , q % & u w w $ % , > ; $ % , = + % > > > % < & % O $ & , , w 2.Y z , w > % t w > t Y : + = =.% ",
"w : + Y t w : w % & & % = q w % % & & % / v % % = % $ & $ % q q $ % . w * g & % % % , % % q % l ..| = & , * * w & w D = z + 1 Y ",
"& % % & $ % $ u w & % % % , * % % % > > 7.3 w % % & = w w l , w O % % w D , i.3 ; $ & q & % 1 6.w.v % w * w , , > & O.= g * % $ ",
"D w z : ; $ w + u : % : > & & =.) / q w g % w w % + w = % & % + $ $ % & * % Y l % & % * % $ u u ;.w % % & l * % , % Y B u w , w ",
"B = 2 % w O > % B $ $ = & % - =.l : $ $ X % % , g % % w % % % % & & , % b , / w : O.@ / = w u $ > & $ : , 2 * w t & t w.u w $ =.",
"u > & < % + @ z w w q * & =.$ = = % & > % % t w w % % , @ % % $ > w l 1 , % % * , = , / S q w X % X % > > + % * & , = & & & $ = ",
"u , % w w @ + , % , > % & w : u w : t & = t > : * 3 % & % ) G & =.z 2 : & % * | B w w = & = w t , % % =.u $ = w B > $ % ,.> % w ",
", , w , * , = > $ > w - w & % % t w u % t w % % : w / w % q Y , w s g % $ X w B ) w , & * @ w > w X X $ $ % % w w w X $ _ w + % ",
"% + u , %.* w & : u w =.$ & w & w $ $ % & & w w % B B > & % % & % = w q : % : & $ w w & , , % % & & $ > t & < % t < , = B l =.- ",
"$ $ % % O.2.w , & & m s w , @ w 2 : u & & & : 1 & t t : u % & = % + > > q % g , = % % % , % % l / , % , w 2 % % w Y $ = $ - w w ",
"$ t t % =.w w X % , * &.% , 2 = * % : $ $ $ = / w ; % + % & w @ % % , % & & w * , w % = = w Y w , ) > t : % & w w w % t & w > : ",
"% < w , y.= % & : % = / * w 2 2 = ,.% $ @ + q ) B w % > & w q % , u z = w , , z q l w w w u w @ * w & % , @ , | q % i ) + & ,.) ",
", : , ) y., q w @ 3 ;.z w & & + w u w q z w B D w & $ % - w Y , % $ , , * + * 2 z w B l Y w w : / w Y Y = @ = w $ % q G , < 6.d.",
"& % > q u w < % # 2 g g w w w $ > w z w % , = l > % $ O % < % = $ i / O.* O g 6.: & ) w l * , , * | / i.w t & =.: w q., $ > > u ",
"w u w & % + $ $ * % l w w Y % $ $ & / w Y % X 3 w = > $ = $ $ u w , w =.> X @ z , & q > w = / w w / q.w w B , l > & q < > < : a ",
"2 w z 1 $ O     % , , w B B & @ % w , , > % % % $ $ % % w < w , % < q $ % + % : z % , , @ w 6.l w l % % z & % l > > & ( B =.: < ",
"3 / Y , q + : % w l w ) , w., * & w % w = & t < = : $ % % % f.Y % t & , & % , 2 = v = 7.g * w ;.z , & , D 2 v * q & % > = % > a ",
"+ , q t = =.B =.B $ + D l w * s z & , z B $ * B / l B % + , ) = l 6.,.% % B =.l l * w ) Y w 6.6.u t = q f.= 2 % w , w % % $ = z ",
"$ G , ) , =.& & u < = ;.> B w % , & l ,.t w % , , z t , w 6., l = l < + = & l O.Y @ % , = w , , B =.- , B , , * , % & , t = w 1 ",
"& % % @ : & % 2 w % & & & < % % Y w B w t # & / g , l = w Y 6.w w =.Y + % w l w 2 % & * B Y % q > , > = % % = $ * w % + & w > t ",
"& & w * * & & w / & = Y > > + % % $ $ $ : & , l w = Y q l / , & w./ : + % & % , X % % w = q %.> < : $ > , u s = 2 2 l % : Y u w ",
": $ + ,.w , & , B t B z % & & & $ $ : + < B = w % $ _ t > % % w = w.> u > B w , & + t w y.> < B , , = q t ) , =.B > & > % : % X ",
"> < $ B , % w % t w Y / w Y % $ Y < u % % =...w , & u % % : Y a S w : u w B : q : 2 ) +.w % % > w = l D % l t +.) + O % & + # @ ",
"> % ,.w & & $ % & w ) = % % O & 1 $ , % @ l = = B Y w w < : t y.f.w B = % < : > , , / w $ $ $ % & D 6.& & v w : & O % , B Y / % ",
"Y & w < > t % & % & i.l l w % w $ % w * X , @ = Y w w ) % w $ w G & % ) t ( < t l , / q $ + > w + % * 3 w Y 2.: : + + & & w 4.s ",
", 1 % O % : , > w $ , w = p.w w q w = , $ > = %.6./ / ;.: $ $ = > u w u w Y ) =.$ % = w w * , w , < =.= w w / , % 3 & , > & t : ",
", , > + , : u , w w & = : w w , > & u & w =.) =.w , g O.% + & t w 2.2.B B & w > , w % = z z w : , , > % & , w 2 : w : = $ = q $ ",
": & > + : z q., t t & & > + % t w & 3 % q w B z % + * z & $ w & q w l ) w & % @ : & G B z & B > z v 1 % +.w = % * 1 % w % & u =.",
"$ 1 , w & % & + % % $ & % $ % & , + % & _ w = = < & , , = < t % t w D B = q q a u < , w : % q.6.Y = % : = = , * % + % w B % B % ",
"% % = w , / > & w w Y > % % > % X & Y * / / u w 1 % > w w & u w : < u u ;.* u ) Y f.) Y , w u.O./ z = l % w B > + & % , w & % w ",
"& & w w v / $ t > = , > > < % = % % * : w y.t & / =.& & > w w % > < a : w 1 , = , < O./ & , v z & % & * w = B l + w - , % & w % ",
"+ , < ) Y & % & % > + % ,.> $ = , % & l w , = w % u q w < < < w t u >.t , $ = 2 & w , q & % t < , =.= =.& & & Y : 1 z 2 * & % $ ",
"% w =.= 2 w w > < % : w % $ t - 6., : Y > w , w % w t B : < t $ < 2.t t : & w w + & w = w w & % a < % B , G ,.,.) w w l , B t = ",
"> % & l w , w , + & %.@ * w % l w @ X u : z q & = t w q / : = * w q % i > = w G z = l % , z u 1 % u $ + , ) t ) , , q q & & , & ",
": w : * B * * ) u > / B q * , / u , X , l / & w G G w u % * & % = w w w , w > O.l w = % , w , > , t ;.$ Y % , % = & w % : , % = ",
"$ > * l = = , +.Y w t ) & / q , t > $ & , z , w D = > t : 1 q t w.y.- , : 2.w : & > < %.l B w % > & Y u , % O.1 w & w : , , @ % ",
"$ % w B t $ , w > Y & w l w % % t : : , B ) y.+.= w % % > Y : u = _ y G =.w & % & % , Y q & & % & w t q * , ) w > * @ z w % @ 2 ",
"$ Y l , q & % , , l * / ) w & & B w * < * % $ & & , & @ = q % t ) w =.) B % & w w : ,.z - w % % = * & , t w t < , * = l u % % + ",
", w i.w @ : : g l / l w = , w = * % % < O.= $ w , B , , , Y < & w ) B +./ , w l t w w z B w w z q & & = _ w > % B * * % & , & + ",
") & ) & @ % Y w w u % = % $ = = = t + & % w , , w.w & , w.w = Y ) 6.< Y w % B u > < = & =.w q @ q < & w =.B , % B B B = % & , / ",
"& & t , , % & & & < , t w $ : % > w $ > % u ,.& | , @ % / l w / g w < w / l Y ) < & % & w w & = u X > $ w : , & & ) Y %.& & + Y "
};
