/* XPM */
static char *_23a688e8d044c85bd99977b7ed9dc76nZIkydSiLmo75TZu[] = {
/* columns rows colors chars-per-pixel */
"64 64 134 2 ",
"   c #068CA7",
".  c #068CAB",
"X  c #098EAD",
"o  c #0791AE",
"O  c #0A91AE",
"+  c #078DB0",
"@  c #0A8FB0",
"#  c #0790B0",
"$  c #0C94B3",
"%  c #0E98B6",
"&  c #0E96B9",
"*  c #0F99B9",
"=  c #1097B7",
"-  c #1099B7",
";  c #1197BA",
":  c #129BBD",
">  c #119ABE",
",  c #119BBF",
"<  c #129BBF",
"1  c #119ABC",
"2  c #149ABD",
"3  c #159BBE",
"4  c #119CBD",
"5  c #139CBC",
"6  c #129DBC",
"7  c #119EBC",
"8  c #139EBD",
"9  c #129FBD",
"0  c #139CBE",
"q  c #129DBE",
"w  c #139EBF",
"e  c #159CBC",
"r  c #149DBD",
"t  c #149DBF",
"y  c #159EBE",
"u  c #149FBE",
"i  c #169FBF",
"p  c #119BBB",
"a  c #15A0BD",
"s  c #15A0BF",
"d  c #14A0BF",
"f  c #139CC0",
"g  c #149DC1",
"h  c #179DC0",
"j  c #159EC0",
"k  c #149FC0",
"l  c #169FC1",
"z  c #159DC3",
"x  c #149EC2",
"c  c #159FC3",
"v  c #169FC3",
"b  c #179FC5",
"n  c #149EC1",
"m  c #189EC1",
"M  c #14A0C1",
"N  c #15A0C1",
"B  c #17A0C0",
"V  c #17A2C1",
"C  c #16A3C1",
"Z  c #16A1C2",
"A  c #16A2C3",
"S  c #17A2C3",
"D  c #15A1C4",
"F  c #16A0C4",
"G  c #17A0C4",
"H  c #17A1C5",
"J  c #17A3C4",
"K  c #17A1C6",
"L  c #17A3C6",
"P  c #15A4C4",
"I  c #16A1C3",
"U  c #18A1C3",
"Y  c #19A2C2",
"T  c #19A2C4",
"R  c #18A3C4",
"E  c #1AA3C5",
"W  c #19A1C7",
"Q  c #18A2C6",
"!  c #19A2C6",
"~  c #19A3C7",
"^  c #1AA3C7",
"/  c #19A4C5",
"(  c #19A5C6",
")  c #18A4C7",
"_  c #1AA5C6",
"`  c #18A7C7",
"'  c #19A3C5",
"]  c #17A6C8",
"[  c #19A3C8",
"{  c #19A5C8",
"}  c #1AA4C8",
"|  c #1BA4C8",
" . c #1BA5C9",
".. c #1AA6C9",
"X. c #1BA5CA",
"o. c #1AA6CA",
"O. c #1BA7CA",
"+. c #1FA5CA",
"@. c #1DA7CB",
"#. c #1BA5CC",
"$. c #1BA6C9",
"%. c #1AA9C9",
"&. c #1CA8C9",
"*. c #1DA8C9",
"=. c #1CA8CB",
"-. c #1EA9CA",
";. c #1EAACB",
":. c #1FAACB",
">. c #1DA9CC",
",. c #1DA9CD",
"<. c #1EA8CC",
"1. c #1FA9CD",
"2. c #1EAACD",
"3. c #1FA9CE",
"4. c #1FABCE",
"5. c #1FABCF",
"6. c #1DAACC",
"7. c #1FADD0",
"8. c #20A6CB",
"9. c #20ABCC",
"0. c #21ABCF",
"q. c #20ACCF",
"w. c #20AFCF",
"e. c #21ABCE",
"r. c #21ADD1",
"t. c #20AFD1",
"y. c #23AFD2",
"u. c #22ADD1",
"i. c #21B0D2",
"p. c #24B1D4",
"a. c #25B6D9",
"s. c #29B6DA",
"d. c #2ABADC",
"f. c #2DBEE2",
/* pixels */
". X O O $ $ X X @ @ O O X $ O # * 5 M J * X X . . . . X . O $ O . O O X . . X . . . X . . X .   .   . . . . . . .   . . . X X . ",
". . . . $ $ $ $ p = $ - p P y : * * & * J # * . . . o . . O $ # o O X . O X . . X . X X + . . . . .       .   . . . . . @ X . . ",
". . # $ p s l p & p 5 y y J y l & 5 y Q P @ X @ . X X X $ . # * . X . . . X X . . . . . . . . . . . . . . . . . . . . . X . . . ",
"O . X $ $ # l # $ - * p * f p & $ p p P $ X X X . . . . . . = $ . . O . . . . . . . . X . . . . . . . .   . . . . . . . X . . . ",
". . X $ $ = * X $ = $ # X # . . . o - y P $ $ $ . . X O # O % J y X O . X . . X . X . . . . .   . . . . X . . . . . . X X . . . ",
". . X X X X # X @ . . . X O @ X $ . $ $ O $ X X . $ $ $ X m 5 J Q -.O . = X X . . X .   . . O .   . . . . . . X . . . . . . . . ",
". . . $ O X X X . . X $ # X X X O $ & $ ; e y l % # . . - -.o.<.Q = $ . . $ @ . O X . X . . . . . + . . X @ . . . . X . X . . . ",
"X X X X . X X X . $ # X X @ O # . $ @ $ $ - J y $ p p - _ 5 -.o.$ p e $ X . X O O X X X - $ . . . . . @ @ @ @ O . . . . . . X . ",
". X . X . . . . . X O O $ = $ $ # $ : & % p % y : e = @ p @.3 t.0.$ = $ % O X . $ = $ e $ % $ $ X X O = X X @ @ . . . . . . . . ",
". X X X X . . . . . X X X X # $ $ o y y y y _ 5 # O s P & X - o.Q e O . X X $ o o O O - - O $ - e = = O X X X X X . X . . . . . ",
". . . X . . . . . X O $ - $ $ O $ & 5 * : J o.# $ = : & $ O X 3 y O $ X $ . X X O p = $ # $ # o X O X O @ X X X . X X X X . . . ",
". X . X . . . . . . . O $ p % % * : * 3 5 c Q p $ = O $ $ = O $ $ . # O O X X $ O U p % * p - * = = = = @ O   X . X . . X . X . ",
". . . . O X . $ . X $ $ * * $ P l p p y 5 -.=.y . # $ O @ O O . . O X $ O O $ p = % & P U - 5 5 - 3 = = @ X X X X X . . . X . . ",
". . . X . . X O . $ P J -.5 p $ - p p p P s d y O : $ O . X $ $ . X @ X X * $ p $ O 5 $ O $ $ # - 3 = X = . @ X . X . . X X . . ",
". . . . X # # . O - * M 5 : 5 o.P Q _ P U y # $ X X p . . . . . . . . # $ $ 5 $ - X = $ $ % :.P $ e 3 = ; X X X X X . . X X . X ",
". . X . $ X X . . . # 5 ] @.=.o.@.U P _ P $ O p $ . . @ . . . . . @ $ X $ p $ = % % X # $ O p P s e P $ ; @ X @ @ X X . X X X . ",
"X $ # . X . X . . . % O p s w.o.@.y P * . $ & o = $ X . . . . . . . e $ @ # # * = & $ # $ y * 5 U Q 5 $ $ $ @ . X X . X . . . . ",
"@ . . $ y . . X . O . O 5 @.w.-.9.P y : $ $ o . . = . X . . . . . . . # * . $ & 5 = $ l -.J <.<.<.o.o.$ y $ # O O . O X . X . X ",
"X X = $ y # . X . $ . . $ $ 2.y.U y l # $ $ . . . X X X X X X . o X . O X & X $ $ # & * o.<.@.3 Q @.@.U y : p * O . # X . X . X ",
". = m e p % . X X X O O O X % % - p * # $ . . O X X X X O X =   X O # . X $ # X @ $ @ X c l 3 = O - P y y P p * @ O X X @ $ O X ",
"$ : 5 l $ @ . . X X # $ X X . . . . $ # X e   . . = X X @ X $ e & $ X X X X o X X # o X . . . . . X X = m e - # O O X # $ $ . # ",
"f J & J p * $ O O # X X X . $ = . . O y . $ $ X . X X X O X O # X o O X X X X X X . X $ . X X = . O X X y = e $ O O # $ O $ * y ",
"Q [ p $ P 5 - $ $ . X X X X . . X $ p * X . X O . . $ $ X O . @ $ # . X X X X @ X . . X . . . . X . . . $ P Q P y X # O X l J o.",
"l Q <.o.& % * : $ $ $ $ $ $ X @ X X $ 5 p p . X # X $ # . . X . X X X X X X . . X . X . X . X . . = X X $ = y 5 s * : * p & : =.",
"[ 8.t.9.: 5 J * * $ $ X . X X . . . = Y ; ; . . . . . @ X O $ $ X . X X X . X X . . . . . .   . X . . $ 3 $ : P * o U - = $ $ J ",
"o.@.y Q l : * * * $ $ O $ . . . . . O $ . . . . . @ @ = $ X . $ $ X X X X . . . . . . . . . X . . . = X # p Q Q $ # O $ 3 p o l ",
"[ Q Q 5 f : = : % d $ X X $ . . . . X X . . . . . X X X X . X X . X . . O X X X X O . . . . . = . O O O p P <.3 $ = O $ : : * - ",
"U Q =.J : & p $ 5 % # $ X . . X . . X X . . . . X . X . X X . X . . . . X X . O . X . O O = . X X . X X 0.0.l & 3 @ $ l = & p J ",
"p.[ 0.* $ $ X = o O O O X . . . .     . . . . . . . X X . . X . . . . . X . . @ O O . X X . X X $ y X X M 5 d @ & $ : X $ [ l r.",
"Q y X X X X X X . . . X X . . . .   . . .   . . . . . . X . X . .   . $ X & X # O $ O . . X . @ & X p P M 5 P $ # = & J : J =.t.",
"O X $ X . . X # O X . . . . . X . . . . . . . . . . . X . . . . X . $ $ O X $ $ $ O $ $ O $ $ $ . $ y = @.=.* $ $ X . Q 8.@.b p ",
". X X X . . . X X . X X . . X . . . . . . . . . . X X . X . . . X . X . . O O $ - O $ . O X # X J y l J @.* X X X X . $ $ $ J U ",
". O . . X X . X . . X X X O . . . X . @ . . . . . X . X X X . X . X = . . $ $ $ = = $ $ X = - y @.P $ & U O . - O X O X . $ $ . ",
". X . $ X . . X . . X X X X O X X X X . . . . . . . . . X . X . X X . . X $ $ = $ $ p X $ & O $ % 5 5 l U # O . . . . . X # X $ ",
". O # X X . . X . . . X $ X X . X . . . .   . X . X X   X . X . X . @ $ % O - $ $ X . . X X = $ # * c : l $ O . . $ . . X . X O ",
"X . O . X . . . $ # . . O X . o X X . X . . X . X . . X . X . . = . X = X X $ X . . $ $ . X X # o # $ 5 - % = O . . O . X $ $ - ",
"3 $ X . . . O & # X X . X . . X . . . . X X @ X . X X . . . . . . . $ $ . $ . X X X X . . . . . . X e = - $ . * $ . O . X O X p ",
"9.Q # . O O $ . X $ O X . X X . X . .   X . X X X . X . . . .   .   $ $ . X . . X . . . X . X X . . . = = - $ O - $ $ # O $ O $ ",
"p.w.-.= X # - $ $ O $ O X . . . . . X X X X X X X . X . . . .   X . $ # O . X . . . X . X .   X . O . = p Q p y O $ $ - $ O - y ",
"P =.a.<.5 $ * 5 $ $ % X X X X X . X . . X @ X @ . X . . . . . X . X O % O . . . X . . X X O o . . . O $ O = $ U O X = p $ o p _ ",
"f.*.=.] J P 5 $ $ $ % l $ = @ # X . $ X X X X O X X X X X . . X . X X O = . . . . $ Y O y - % . . . p % & % l P $ $ $ $ p l Q Q ",
"p.w.J d J 2.5 & O $ $ * P X X X @ . . X X $ O # . . . X X . X @ X X X . . . . . X O O X $ p X o . . $ # =.-.8.$ X $ c * z b <.s.",
"d.f p.J * M * J # # % * : @.$ . X = X X O $ $ O . . . X X . X . X X @ $ . . . . X X = $ p $ $ O # $ * l * t.a.# b = = o.5 : <.2.",
"_ _ M w.=.p.=.2.t.* _ @.- P l p ; = $ $ $ O X . X X . . X @ X X X X . . . = O . # X $ $ y - % * $ $ - _ Q l 7.D $ y $ & o.p # # ",
"E d.U P a.J a.s.t.t.8.5 o.J % 5 % - $ o O . O X X . . . O O X . . # . $ = O O $ # p 5 * P Q p * p p = : % & M =.$ # p p * = @ X ",
"X p -.d.P p.a.a.<.t.s.<.Q f l : % O $ O $ . . . . . X . X . O . X X O p . e % X $ s t.* $ 5 $ * p 3 J $ d & ` * $ & & $ $ $ $ f ",
"@ $ * Q w.:.o.a.[ r.t.o.-.@.e 5 - * $ O O . . . . X . X . X o . X . $ . p p p d 3 * _ =.P P Q : 5 & & & * M $ & P $ y # X $ + = ",
"O | U P p p p - p l @.<.0.o.o.J $ p $ . $ . . . X . . . . O . . o . . . $ : y y O 5 * P $ p $ * * : $ p & & .   . . # @ : $ @ # ",
"$ $ $ . . $ p f P p Q -._ =.=.J * % * X # . . . . . # # O X . . X X X $ s % $ . $ O $ : * y : % 3 l : & e X . . .   . @ @ $ $ $ ",
"= O X $ O . $ : P 5 p U <.@.<.J =.7 & $ $ o $ # O # = $ $ X $ O X X p * o.$ . O $ # # $ P <.-.l p 3 * $ X . . . . . . . . @ $ : ",
"= - O . O # X $ $ e p = U o.p.r.* * 5 & $ * $ % $ $ 5 * # $ X $ X f # P / - O O . $ $ X * : -.=.l $ & O O X X . .   . . X # @ = ",
"p X - O X $ $ $ $ $ & = J c _ $ * 5 M % % M % % $ * P 5 $ $ $ # p * * J 5 p . O X X X X : 5 _ $ p Q U $ X X X . . . . . X P M 5 ",
"9.= y X . X $ $ $ $ p * z - $ * J M $ $ p $ $ | z $ & # $ p = $ % * _ J 5 # X . X X X X $ $ $ p $ . $ @ = $ . . . . . . . . l o.",
"O $ # & # . O # # $ $ & y Q J 5 * 5 * * 5 p s P & $ f $ % $ $ $ 5 5 * & $ X # $ X X X O = = y - = @ . . $ X O X . . . X . X Q t.",
"-.$ p X $ % $ 5 p p * * = & & X & & 5 % 5 5 l * ) 5 p d $ $ $ p 5 l * * X X X . X X X . X X . . . $ $ . X . . X . O . . . $ @ P ",
"y J y.. X # $ O & $ = $ $ # $ % * * * l - M $ & o.s 5 & $ = $ $ & % P # . $ X . X . . O @ = X X . . . @ = . . X . . . . . . . . ",
"$ * ` O O O $ X O o X X X $ = = $ $ * & % : $ @ - J f f $ $ $ $ $ * d o O . . . X X . X X X X . .   X X . X $ X . $ X X X O m @ ",
"-.  O O = = X . . . $ . . . X @ @ J 5 f 5 & $ - Q * f f l * l $ * % i.O # O O . . O X . . . . X . X X X X   $ X . X X X X   X m ",
"X . = = Y X X O . O X . . . . . X 5 =.f M $ $ $ * * J f <.2.y 5 5 % $ * $ . O @ X X . O .   . . . . X X @ X @ X X . . X X X . . ",
". X . $ O $ O X . . X . . . . $ X 5 % f p : [ $ - J 5 * J 5 p _ 2.& . $ # X . X .   X X X = . . . . . . X   . . X X X X . X X . ",
". . . O X O O . X . . . . . . . X X $ $ * # & # * * * * : p _ d.d.y.O O $ - o O @ @ X X . . X X X . . X . . . @ . X X X X . X X ",
". . . X O O = . . . . . . X . . X X & & p & $ . . @ $ # $ p p d.f.e . o . O O X   . X O . . . . . . . . . . @ . X X X . X . . X ",
"  . O X . . O . . . . . @ @ X @ X & * * $ $ . . # X X $ $ O l m O # U O . . . . . X X . $ $ X X . . . . . .   X X   X X . . . . ",
". . . # $ X O = $ $ $ $ # X @ X $ # * 5 * $ . . . . X X O O # $ . p . . O X . X @ . . . . . . . X . .   . .   X X X . O X . . . "
};
