/* XPM */
static char *_b09141b14824e4784469d2a5eebe9446dEdYwIGzIimol7q[] = {
/* columns rows colors chars-per-pixel */
"64 64 203 2 ",
"   c #CE9B1E",
".  c #D29E1B",
"X  c #D5A41D",
"o  c #D8A61F",
"O  c #DBAB1D",
"+  c #E3AF1D",
"@  c #C49523",
"#  c #CD9B25",
"$  c #CB9A2B",
"%  c #D99E24",
"&  c #DA972C",
"*  c #D29E2A",
"=  c #DA9D2C",
"-  c #D39E33",
";  c #DB9C32",
":  c #D5A323",
">  c #DBA524",
",  c #D7A826",
"<  c #DCAB23",
"1  c #D5A32B",
"2  c #DBA42C",
"3  c #DCAC2C",
"4  c #DFB123",
"5  c #DDB22D",
"6  c #D4A434",
"7  c #DBA534",
"8  c #D6AA33",
"9  c #DCAB34",
"0  c #D5A53B",
"q  c #DCA53B",
"w  c #D5AB3B",
"e  c #DCAC3C",
"r  c #DEB234",
"t  c #DDB33C",
"y  c #DFB93E",
"u  c #E2A226",
"i  c #E2AD24",
"p  c #E2A52B",
"a  c #E2AC2C",
"s  c #EBAC2D",
"d  c #E3B424",
"f  c #ECB327",
"g  c #E5BA26",
"h  c #E9BB25",
"j  c #E3B32C",
"k  c #EBB22F",
"l  c #E5BA2C",
"z  c #EABC2C",
"x  c #F6B920",
"c  c #F5B42D",
"v  c #F2BE2D",
"b  c #E3A534",
"n  c #EAA635",
"m  c #E2AD34",
"M  c #EAAD34",
"N  c #E3A53B",
"B  c #EAA73F",
"V  c #E2AC3C",
"C  c #EBAD3B",
"Z  c #F2AD36",
"A  c #F3AD3D",
"S  c #E2B434",
"D  c #EAB334",
"F  c #E4BA34",
"G  c #E9BC34",
"H  c #E3B43C",
"J  c #EAB43C",
"K  c #E4BB3C",
"L  c #EABB3C",
"P  c #F3B633",
"I  c #F2BC35",
"U  c #F1B33C",
"Y  c #F9B23E",
"T  c #F2BB3C",
"R  c #F8B83D",
"E  c #EFC926",
"W  c #EAC32C",
"Q  c #ECC82A",
"!  c #F0C528",
"~  c #F1CA2B",
"^  c #E7C135",
"/  c #EBC333",
"(  c #EDC934",
")  c #E6C13C",
"_  c #EAC33C",
"`  c #EECB3D",
"'  c #F0C737",
"]  c #F1CC35",
"[  c #F2C53D",
"{  c #F0CC3E",
"}  c #EED03E",
"|  c #F3D533",
" . c #FADD37",
".. c #F4D33C",
"X. c #F5DA3B",
"o. c #FADE3D",
"O. c #F8E236",
"+. c #F8E13B",
"@. c #CEA040",
"#. c #D4A742",
"$. c #DCA543",
"%. c #D6AC44",
"&. c #DCAD43",
"*. c #D7AC48",
"=. c #DCAD49",
"-. c #D7B240",
";. c #DDB343",
":. c #DEBA47",
">. c #DDB34A",
",. c #DFBA4B",
"<. c #DEB350",
"1. c #E5A643",
"2. c #EDA747",
"3. c #E3AD42",
"4. c #EBAC43",
"5. c #E3AD4A",
"6. c #EBAD4A",
"7. c #F5A742",
"8. c #F2AD45",
"9. c #F2AD4C",
"0. c #E4B443",
"q. c #EAB444",
"w. c #E4BB43",
"e. c #EBBC44",
"r. c #E4B44A",
"t. c #ECB54B",
"y. c #E5BB4B",
"u. c #EBBC4C",
"i. c #F2B443",
"p. c #F2BC44",
"a. c #F2B44A",
"s. c #F2BB4C",
"d. c #E3B651",
"f. c #ECB651",
"g. c #E5BC51",
"h. c #ECBC51",
"j. c #F4B451",
"k. c #F2BC51",
"l. c #E6C144",
"z. c #EAC446",
"x. c #EBC344",
"c. c #EFCB41",
"v. c #EDC843",
"b. c #EFC942",
"n. c #EFCA46",
"m. c #ECCA45",
"M. c #EBCE46",
"N. c #EDCC47",
"B. c #EECC44",
"V. c #EDCB44",
"C. c #E5C348",
"Z. c #E6C34D",
"A. c #E7C44E",
"S. c #E6C24B",
"D. c #EBC149",
"F. c #E9C349",
"G. c #E8C14A",
"H. c #EAC34A",
"J. c #EDC04B",
"K. c #E9C54B",
"L. c #EAC649",
"P. c #ECC649",
"I. c #E8C34E",
"U. c #EAC34E",
"Y. c #EBC44F",
"T. c #E9C64E",
"R. c #ECC54C",
"E. c #ECC34B",
"W. c #E7C84B",
"Q. c #EBCA49",
"!. c #EECB49",
"~. c #EDCA4A",
"^. c #ECC94B",
"/. c #EDC94E",
"(. c #ECC84D",
"). c #EBCC4D",
"_. c #EDCA4B",
"`. c #F2C345",
"'. c #F0CC44",
"]. c #F1CC45",
"[. c #F1C34C",
"{. c #F1CF4C",
"}. c #F1CB4B",
"|. c #EFD041",
" X c #EFD24C",
".X c #F3D543",
"XX c #F2D347",
"oX c #F2D345",
"OX c #F3D446",
"+X c #F2D243",
"@X c #F5DA41",
"#X c #F5D947",
"$X c #F7DE44",
"%X c #F5DB42",
"&X c #F2D249",
"*X c #E6C350",
"=X c #E9C252",
"-X c #ECC151",
";X c #EBC251",
":X c #EBCA51",
">X c #F2C351",
",X c #F1C950",
"<X c #F2C950",
/* pixels */
"4.5.1.q.F.T.R.y.g.e.q.u.a.q.u.y.Z.&.&.=.r.*X}.T.>.Q.)..Xz.&XXXQ.XX!.w.y.z.z.e.F K r 5 d h 4 4 Q ^ F W ^ +.l < O < X d , r b q.3.",
"$.e :.r.C.*XS.=Xr.u.!.'.e.w.0.0.0.:.r.r.u.=X).t.r.U.#XP.Z.v.z.!.$X!._ K _ v.0.S j G F y :.K 4 | F j j h | ( r 4 < 4 l , w &.&.3.",
"1 t w t w &.5.g.=.0.e.{ , y t :.q.>.&.&.y.U.R.1.h.h.D.J.e.F.B.z.V._ t -.r K L t 9 r Q ! ` $X_ ) l ^ W _ G G F K y l l <   t e w ",
"8 1 # @ &.r.r.r.2.4.0.t &.9 w.w.:.B =.q.:XS K ;X;X).e./ S.S.B._ B.0.w.y 6 8 g E ( ^ y r ) L w.J S 9 w.z.v.G y.l.5 Q l 5 X r j 3 ",
"9 : 1 %.;.r.u.d.t.A 1.N &.-.;.0.u.u.u.i.;XP.F.J.F.l.:.V v.F.B.w._ w.r.2 0 6 r G z.) ) ) w., O y j J e.r l j j < ^ ( j e , : : 5 ",
"r 6 - #.:.U.[.e.T L m 4.t.q.r.r.u.3.u.R.[.J.q.u.u.F.L w.z.Q.` b.K K P.t.w V H w.r w.w._ K q.z.e.3 H G d L K ) l Q S t 3 m 1 8 8 ",
"1 6 0 ; ` z.P._ F.w.;.&.q.y.6.r.0.t.h.=Xu.s.;Xs.s.e.0.z.P.x.`.z.K x._.J.V 9 e r.0.r.x.'.H u.F L D.H < d H F y K 8 S r / m 2 , 8 ",
"$ 6 b x ` ..e.w.y.H M 5.&.e * 5.1.[.}.:X3.;XR.}.[.0.0.w.'.B.w.e.L `.D.q.0.t t l.0.4.e.t.D.9 e.q.r.d h H F v.S 3 4 < r ( 7 -.t 8 ",
"# u 4.v S +Xq.0.q.0.A a.t.i.; t.e F.$X].}.).q.}.0.H y.u.q.e., L ` &XD.q.K m w t H e m 9 q.y.U.D 9 K 4 H G H r X X , 2 t &.t t 1 ",
"7 n q.t.j u.q.t.t.3.N * s.>XJ.L   : p.T  .'.q.P.L w.U.u.J.x._ ` ` e.p.!.w.H ;.9 3 3 9 b J x.u.p.t y.S H L m e o 2 1 j 7 q w * 8 ",
"w.H m s.C q.H s.k.7 B 6 s.>Xh.q.D 9 q.t.R 6.q.D L ( q.y.u.v.[.'.T q.D.x.) l.H 5.0.q 3.V L 0.m K S w.F J 9 8 8 < + < , i < 8 * m ",
"l.z.l.s.V V q.a.a.i.u..X}.>X_ 8 [.U.5.e.C 6.1.t.J H r.e.'.].}.}.#Xu.D.x.G F w.t :.l s p L S.J F J P.L +X) : : 9 3 8 d + d j b ;.",
"K S _ D.B 1 # i.u.k.U  ._ u.x.L w.z.m 3 3.z.5.y.U.z.w.y.R.[.}.}.}.[.0.r F r K ( b.H :.w w.y S K e.D._ t K H w.w.r S h 3 2 < m q.",
"E _ L e.J r.e / G k.A F W s.s.].[.{ K 2 9 w r.g.q.y.r.t.S.u.t.}.}.l.e.K F r w ) ` H ;.&.H r _ m J P.B.K l.l.;.9 1 H z r > > S 2 ",
"K r r S q.s.h.b.[.[.p.e.p.p.G F _ T L V 7 N w.u.y.R.e.y.U.u.p.D.P.x.z.K _ r r ) G 8 6 6 ) _ 3 g S G l.) _ K w.1 < K e.r 3 : l 3 ",
"y r m m t t.t.s.i.u.&Xs.S p.H a _ d 2 w.y.t r.&.r.t.r.h.;Xs.OXXXz.e.0.w.C.:.r 2 6 1 9 r d l l l g ) z.G e 3.j q.S S D 5 5 y F 5 ",
"r _ l J 7 e.u.s.x.e.[.[._ e.S H v.< 3 t v.t y.0.u.e.r.F.D.u.}.e.y.0.;.w.:.e.y.K 8 w 7 9 / ` L w.L J z.w.[.S : q.s F S r 9 y o o ",
"< 3 q.q.# t.s.s.u.u.V y.v.H F F ` r 9 r.:.e ;.:.w.t.w.z.z.L L L r.0.^ K ` _ S.y.1.K H ( ) e &.J J e.L [ s.8 > p.[ 0.a S , 8 j < ",
", 5.v.q.$ t.k.t.t.w.w.w.w.w.) r ` ) y ;.t ;.H w.K H e.F.z.e.m 9 S l ) w.v.K C.e V >.=.y.V q V N 8 7 S D s.P `.{ q.u.v.w.> 8 8 : ",
"< 3.S.H q 8 V u.0.H ;.;.r H ^ F _ _ F w w.S :.l.r.K l.K K S H F G ) ) F.l.l.C.C.y.:.S.u.w.l.F.F.e.H S L }.[.i.G w.H t F m * q : ",
"X e w.r H w.y.h.e q 1.q ;.r 1 S j ( l.K w.t w.w.w.;.B.M.v._ | X._ ) C.y K w.e.C.0.&.>.y.z.r._ B.A.q.H u.k.s..Xe.q.S H K K 0 t . ",
"5 8 S %.w ;.u.t.t q 5.1.z.8 1 S m F w.w.t :.&.H z.S.r l ) B.~ K e w._ y K t V.y.&.y.r.;.-.0.J N.J.3.H J.a.a.`.u.y.3.H 8 < 8 w.: ",
"2 3 * t K 4.0.t.J 1 3.s m 1 < , K K w.l.H C.U.z.B.V.y F z.v.+ 3 8 9 w.:.6 K _ w.0.5.1.w >.>.u.R.h.t.q.4.7.8.U n e.0.D w.3 7 0.0.",
"0 > * K %.q 2 q.M 1 A V S 3 g a e 8 t _ w.9 q.S S _ C.e.F e.S y q.0.7 H q G K 9 S H ;.0.0.Z.u.q.y.t.q.5.$.; M n y.5.0.t.=XV e q ",
"1 q 6 d 1 S q 0.t 8 m t l r ^ d / b.H V.) 0.y 3 S ;.F.R.L XXw.D C q.p.t.0.H z.e K K r 7 0.w.u.u.u.t.N =.0 % p 0.r.3.B C 8.m q V ",
"e =.$.. # y e e e H e l.3 r < H t ` M.e.K w.K 9 m 0.w.w.x.v._ J s.q.t.t.R.e.w.L S ;.e V 9 V q.t.4.n $.= 0 N 3.7 9 &.6.a.i.q.m w.",
"r.>.&.3 8 0.9 7 M J K S r Q 5 t H } r F L z S S o J t.w.K e.P.J e.J q.q.L `.u.`.z.3 m w.3 H J q.t.n & p r.=.t.$.b &.=.$ 0.a.l.0.",
"0 q 8 7 P.0.e.q._ z.z.G F G ( K ) ` _ K F l j e K w.H G q.x.`.`.J l.e.T L `.].`.q.j K 0.q M r.t.7.N ; $.=.d.).e.;.&.8 H *.:.r.G ",
"#.q 8 H w.`.e.3.U.p.L L 3 S G ^ r d j K j S r S H u.e.D '.L I T L ].!.Q.D.p.v.L q.z.F.F.V q.q.i.4.2.>.0.u.d.u.S.d.r.;.t :.y.1.w ",
"m :.0.w.w.L `.0.w.e.w.w.e.w._ b.K F 7 l G r S i H e.L G B.M I I D y.R._ P.u.N.!.u.p.v.H e y.a.t.P J y.5.f.t.t.r.y.r.y.r.0.y.<.>.",
"y.;.y.;.H L z.p.F.Q.v.w.x.K x.K K F K j j 5 7 q D J J G ) G i.J w.s.y.T.R.Q.H y.S < r w.q.y.u.u.a.f.3.r.t.h.i.r.r.>.>.r.>.y.y.C.",
" X+Xy.) _ H `.v.H _ 3.L e.K G w.w.0.9 ^ r , j H e.p.t.v.s.e.L J `.p.u._.s.F.q.w.q l J e.4.J p.k.u.t.8.f.h.y.m 5 ;.Z.y.;.%.y.Z.A.",
"S.0.w.K K x.[.x.) t K x.z.t S v.v.G W W O.G K e.J D `.s.`.R '.L J e.e.R.>Xh.u.t.F.w.e.i.q.J h.k.u.t.a.a.u.=Xy.l 3.b.v..Xl.w.l.y.",
"q ;.!.r.K _ e.p.j _ e.l.:.F g @Xl.j < g | } t.w.e.p.x.[.R `..XT [.[.a.a.[.a.i.a.a.D.!.}.w.M 0.q.s.s.j.a.u.*XR.H q.u.` x.S :.r.y.",
"y.y.C.U.;.K `.q.e.[.B.XX} X.K _ K / _ ^ l ^ e.q.s.'.`.{ W [ +XD.z.i.p.p.s.s.a.7.Z p.e.].p.s.u.u.u.a.a.f.u.=XU.t.y.t.g.u.v.l.w.Z.",
"y.l.T.F.w.q.`.&X&X}.[.q.z.K H K L e C.w.) G D.H [..X_ e...XX{ s.s.a.J e.u.t.a.7.a.i.p.u.t.r.w.t.h.a.V r.;X[.u.r.h.=XT.w.v.B.w.y.",
"R.U.R.` #XA.y.D.<X}.&Xx.u.0.w.w.w.J w.K L L `.L ( B.x.` _ D.[.p.s.p.e.s.s.u.a.i.i.Z i.4.6.h.t.k.k.;Xy.m ;X;XU.0.w.y.u.z.x.w.L C.",
"Q.Z.*XN.v.T.C.x.s.s.[.}.F.t :.K w.y.w.K S K v.P.b.e.F.U.u.;Xa.p.s.u.s.i.[.>Xp.`.T i.8.8.0.u.J.u.u.;X;X=X=Xe.4.&.&.S.T.u.C.l.e.F.",
"y.U.*X:Xv.e.F.h.s.r.!.].e.u.x.H w.u.w.w.H z.x.P.z.w.L P.'.:Xq.p.8.u.D.`.}.!.` [.:Xu.h.f.t.h.u.h.h.h.;Xy.y.r.e.r.e.[.:XS.C.Z.>.Q.",
"e.l.*X=XR.y.U.R.r.5.[.u.J.e._ _ w.w.[ q.e.R.e.H w.J 3 y.r.S.q.q.e.q.i.q.J B.p.u.u.t.i.t.k.t.u.=Xt.[.}.r.$.q.C._.R.u.u.A.T.T.e.F.",
"b.N.u.d.Z.y.d.e.t.q.&.y.u.w.w.L w.C.K e.e.e.s.u.q.0.;.q.e.;.y.H q.C q.q.e.].0.y.t.a.7.t.t.t.2.e.k.u.h.y.y.:.q.t.h.h.T.*Xy.e.L e.",
"}.w.e.*X*Xr.y.,.H H q V ;.;.y.e r.w.0.0.L H h.p.q.u.q.q.H K w.0.z.u.F.t.e.w.1.e q.r.2.t.u.t H r.t.u.h.r.=.>.3.0.h.s..XB.L L _ N.",
"J 0.D.g.=XU.y.=.&.*.$.b S 2 r l X D H V 3.H t.m P J D U q.e.H e S K q 0.C w e q 3.3.4.t.u.u.;.e 0.4.6.=.w @.5.B s.[ '.}.!.K z.'.",
"..F.u._.R.S.,.;.:.l N 1 2 r m z.9 w.0.x.y.0.l.r.y.q.z k T _ D 1.x.K S H J 8 q b B 5.h.&X_.U.C.q K y.1.$.8 - $.u.i.p.u.[._ l F.}.",
"Q.w.u.y.U.y.>.N.Q.0.e 8 3 6 q.e.F v.8 e 0.e.S.w.P.e.v q.C J J 3.H D F r.9 1 $.q.y.;.i. ._.0.z.S j y.0.w.V w.&.r.[.}.[.u.F.K T.T.",
"P.A.e.y.S.r.>.Z.R.y.&.$ $ t K 2 4 L { z.l.w.3 0.0.P.G t.M D e.J Q F K 0.p q 3.'.Z.y.A p.v.y.e._ x._ H e 0.0.r.J.m s.e.w.R.r.0.R.",
"_.R.A.e.C.y.y.e.l.y ;.H 1 0.K j j w.z.0.P.0.9 9 C.K z.e.M q K q.K t m f V q.t.!.).;Xe.e.K q.L S K a K m m 6 u.[.t.G e.y.S.u.q.F.",
":Xt.u.F.S.>.r.&.w 0 #.-.7 F.x.l.V.l.0.w.w.0.y.Q.v.4.u.z.J w.G w.y.V 0.D q.C 5.w.t.J.] S S m J J W d e H t H u.t.0.L t.J.S.u.XX}.",
"y.g.y.y.r.W.W.=.$.>.e # 8 ;.3 $.0.y.r.;.H e.r.s.q.e.q.w.0.x.K t y.F.F D V 0.0.x.!.y.z.P.Q.H w.0.( 3 m 0.e.H 5 t C.P.S w.e.e.U.e.",
"y.u.}.y.` ].R.r.q >.&.e y.$.K w.y.e.0.e.0.w.q.L `.x.G x.H J H M s i a s N 6 q 0.w.r.q y.Q.w.w.K _ 5 H S.l.0.y.w.e 0.J D.z.w.L e.",
"e.F.P.H P.XX Xy.5.y.r.h.V 5.y.q >.q ;.:.z.H 0.w.0.F.}.p.S i.0.S 5 % K 9 = 6 &.>.0.0.l H K w.K w.( L K ;.r.H t w.J H w.[.v.[.q.q.",
"v.z.G z.F.Q.*X=Xg.u.u.,Xl.z F.j w.0.;.0.P.z.0.L y.M e.D U U J n q.2 G J 3.q 9 r.y.3.w m t 3 W S Q _ S 8 w.y.y w.w.z._ x.[.u.e._ ",
"L '.B.P.F.U.*XT.k.h.k.}.+Xv.u.}.A.y.&.:.;.e.w.u.r.w.p.p.R C L J K D 0.L t.h.q.%.0.1.3.0 :.r 1 r < ( _ w.w.:.l.w.K t.XX{ '.v...@X",
"W _ q.e.e.y.).=X;X:X>X>Xs.s.s.&X}.&.r.r.-.&.J p.L D P p.e.C z.S K q.[.t.s.t.h.&.e &.$.1.z.;.&.H a K r y ;.e.q.t _ z.e.w._ B.b.w.",
"D j G L J z.F.e.;Xt.s.;Xk.k.u.9 q.u.q =.;.h.C i.D.C U e.p.q.q.e.M T R s.k.8.q.4.K 1.&.a J 3.J t F K t l.w.v.w.z.|.z.K e.v.L H S ",
"S 3.f M w.[ _.k.>X;Xt.s.k.k.>Xa.[.s.s.y.h.q a.i.u.4.s 0.u.J a X 3 P i.[.t.t.7.w.V 7 b 9 S t _ C t 6 r ) ) y < 5 K ` K r G w.j : ",
"w.6.3.r.Z.y.L a.s.s.8.Y a.>Xk.s.j.h.k.a.>Xk.t.[.t.i.f s c q.C H J i.C x.&.q.3.;.H q m w.F t _ 3 _ ( y ` / r 9 3 8 1 H w.j +XK 1 ",
"S 3.r.r.t.u._.p.h.t.k.s.s.a.9.a.4.a.j.9.k.k.a.1.e.u.q.B A P U e.t.3.2.t.5.y.q.H e H ;.G H ;.H K ) ...._ K F y 3 , 3 m K t K w.x.",
"y.3.r.=Xh.h.i.[.}.u.a.k.p.a.a.a.e.9.9.9.s.-Xh.u.A r.f.9.a.C e.H &.w 7 9 ;.y.5.V H H y K K ` a r r.X._ l S ^ S a < < H L e q r x.",
"r.r.q.d.h.h.U i.p.`.[.>X<Xp.j.a.8.t.2.6.=X=X,Xq.y.r.q u.*.%.7 H 7 6 7 7 ( r t.H l.C.K F K l./ S ^ ( _ S l G j > 3 d S K 0 *.>.0.",
"U.r.y.g.d.f.u.s.[.}.[.[.<Xj.a.i.2.t.t.5.g.g.A.A.<.=.d.%.>.0.q ;.&.&.q.w.R.z.u.t.S.S r H r F G L 5 F + r r 9 S F 3 3 j i 3.r.;.q.",
"t.g.d.r.Z.r.r.;XR.[.}.<Xk.<Xt.k.i.u.h.h.f.r.&.*.,.>.r.&.w y.e.y.q.y.q.u.z.L L m H H r t H r ^ ( K K 3 l z j < j D 3 < 5 0 :.r.g.",
"t.5.5.5.g.*Xe.2.u.s.>X<X[.,Xs.=Xh.t.6.6.=.r.d.;.*.<.<.=.*.y.:.z.y.>.>.;.H L F 3 L F._ 5 F K ^ j K S H S G a . % j > < j 6 1.t.t.",
"t.6.5.5.y.g.h.5.t.F.p.>Xa.J u.J.=Xs.f.d.*.>.y.,.>.C.g.&.;.:.>.y.N.V.0._ _ H _ x.t _ : O g r ^ d j 3 3 ^ F : < o < O 1 : # 2 2.r."
};
