/* XPM */
static char *c1f2502524fa415ca4ecb760ad3a5edb2otck7fvAwTGaFez[] = {
/* columns rows colors chars-per-pixel */
"64 64 159 2 ",
"   c #565857",
".  c #5E6164",
"X  c #626367",
"o  c #636768",
"O  c #65696A",
"+  c #6A696F",
"@  c #6C6E73",
"#  c #706F75",
"$  c #6E7174",
"%  c #727176",
"&  c #73757A",
"*  c #76797E",
"=  c #797B7F",
"-  c #767A81",
";  c #7B7D84",
":  c #7D7F88",
">  c #7D8186",
",  c #7E838A",
"<  c #808186",
"1  c #82858C",
"2  c #84898E",
"3  c #838790",
"4  c #858A92",
"5  c #898D95",
"6  c #878E98",
"7  c #8B8F99",
"8  c #8B9196",
"9  c #8D929B",
"0  c #8F999E",
"q  c #91959E",
"w  c #93999E",
"e  c #8F96A0",
"r  c #9296A1",
"t  c #959BA4",
"y  c #989DA6",
"u  c #979EA8",
"i  c #9A9EA9",
"p  c #97A0A7",
"a  c #9AA1A6",
"s  c #97A0A9",
"d  c #9CA3AC",
"f  c #9EA8AF",
"g  c #9EA6B0",
"h  c #9FA8B1",
"j  c #A0A5AE",
"k  c #A1A9AE",
"l  c #A1A6B2",
"z  c #A3ABB4",
"x  c #A8ADB6",
"c  c #A6AEB9",
"v  c #A9AEBA",
"b  c #A6B1B7",
"n  c #A9B2B7",
"m  c #A7B1BA",
"M  c #ACB5BC",
"N  c #ADB4BC",
"B  c #ADB4BE",
"V  c #ACB5BE",
"C  c #ADB6BF",
"Z  c #AFB7BE",
"A  c #ABB3BD",
"S  c #AEB8BE",
"D  c #B1B5BE",
"F  c #B0B5BF",
"G  c #B0BBBF",
"H  c #B1B8BE",
"J  c #AEB7C0",
"K  c #AFB7C2",
"L  c #ADB6C1",
"P  c #ABB8C0",
"I  c #AFB8C1",
"U  c #AEBAC6",
"Y  c #AEB9C2",
"T  c #AFBDC8",
"R  c #B0B7C1",
"E  c #B0B6C2",
"W  c #B3B7C3",
"Q  c #B1B6C2",
"!  c #B0B8C3",
"~  c #B1B8C2",
"^  c #B3BBC2",
"/  c #B2BDC3",
"(  c #B3BCC3",
")  c #B1B9C4",
"_  c #B3B9C5",
"`  c #B1BBC4",
"'  c #B2BAC5",
"]  c #B3BBC6",
"[  c #B3BCC5",
"{  c #B3BDC7",
"}  c #B5BEC5",
"|  c #B4BEC7",
" . c #B2BBC5",
".. c #B3BFCB",
"X. c #B5BFC8",
"o. c #B6BFC8",
"O. c #B5BEC9",
"+. c #B8BFCA",
"@. c #B5C0C7",
"#. c #BAC1C7",
"$. c #B7C0C9",
"%. c #B7C1CA",
"&. c #B6C3CB",
"*. c #B6C1CB",
"=. c #B8C1C8",
"-. c #BAC1C9",
";. c #B8C2CB",
":. c #B9C2CB",
">. c #B9C1CC",
",. c #BBC1CD",
"<. c #B9C3CC",
"1. c #B8C5CD",
"2. c #BAC4CD",
"3. c #BBC6CC",
"4. c #BBC5CF",
"5. c #B9C6CE",
"6. c #BCC5CC",
"7. c #BCC5CE",
"8. c #BCC6CF",
"9. c #BAC3CD",
"0. c #BFC8CF",
"q. c #BEC9CF",
"w. c #BDC5D0",
"e. c #BEC6D1",
"r. c #BFC7D2",
"t. c #BCC6D1",
"y. c #BEC8D2",
"u. c #BEC9D3",
"i. c #BFCDD8",
"p. c #BFD0D8",
"a. c #C0C7D5",
"s. c #C1CAD1",
"d. c #C1CAD3",
"f. c #C1CBD5",
"g. c #C3CCD5",
"h. c #C4CED7",
"j. c #C2CCD5",
"k. c #C4CED9",
"l. c #C8CEDA",
"z. c #C5D0D6",
"x. c #C3D0D8",
"c. c #C6D2DA",
"v. c #C9D4DA",
"b. c #CAD4DD",
"n. c #CCD4DF",
"m. c #CAD4DD",
"M. c #CDD9DF",
"N. c #CCD6E1",
"B. c #CDDAE2",
"V. c #D2DDE4",
"C. c #D5DFE8",
"Z. c #D4E1E6",
"A. c #D9E2E7",
"S. c #D5E1E9",
"D. c #DAE4EB",
"F. c #DDE9EE",
"G. c #DDE7F0",
"H. c #DFEBF2",
"J. c #E3ECF1",
/* pixels */
"1 1 1 4 t p b 1.b z e z J c u t z z A T m I U z -.&.) 8.f.d.k.>.c q y z i l f Z ) N.N x l W N y 8 j q f b p b p 8 p d d 0 5 ; , ",
"$ 2 , z b w p 1.5.A g u z d k r 0 A A A u u z Z -.I 4.g.r.-.4.k i u y l y q i A L >.N l N +.x i y < d d 0 2 h b 8 t q q - & 6 > ",
"8 3 r S z c A ( 1.( c t f z t 9 t m d i z z m &.6.Z -.J e.N A d d d t i c x N R Z N W x >.l t k j 4 4 r * 1 2 l s 9 q 2 0 , t t ",
"p 0 p d 9 r M 0.5.@.b z z d a z z d r t m d h n 3.d.I Z F d g u u i j r O.+...! N c R L z z d 8 w 8 w 2 , 9 % u z 9 a 2 9 p z e ",
"> e A A m &.( v.b.k.] ! c ) l Z z t t g z f t f G } ( ~ } f f d N d x g r.r.U U O.! _ z z s 0 1 1 < < = 4 1 1 , 7 j u r u t d 1 ",
"e P h A } &.Z } B.c.>.A v A ) c v m t i v u t a } ~ j c c y 9 j z z l g O.L A c f.r.l.! Z Z u 4 2 > > 8 1 t 7 , 5 5 2 1 h c b , ",
"t U P A ) 8.>.~ 8.n.} T O.+.~ J e.O.6.z i z d q i f t F Z a k z v d z z J m L v L ! ..L ~ Z A t 4 3 8 6 q 9 5 r 7 t s 8 e h h t ",
"A h V A J r.d.8.V.h.>.J >.J m ~ u.r.a.c A z 3.z z j z j +.F z G v z ) t t z g t L i x g d &.u.u 1 4 4 1 d 9 ; r 9 4 1 t 6 9 f d ",
"&.4.l i l } >.B.Z.c.O.N Z c d 9 u.&.R A z z z ~ z z d q H k x a v F 6.+...d A l d d z l s d L p , 7 5 1 6 1 3 8 q 1 : 4 : 2 l z ",
"&.d.l 9 t t c f.g.-.R +.A [ z q g.r.Z } m i ] >.j y d d } z.( x } s.d.8.r.v c x z l I c @.A b h 9 t 7 4 > * > r q 9 9 9 9 q u.[ ",
"f.g.h.f t i f J F z F J z f z d c z m A u g z d #.} ~ 4.V.n.z.} b.B.0.g.c.A.>.&.c h v g &.P d s 7 d u 5 > 5 , 1 2 r 9 e d d A z ",
"m I f.x z A z d z t y Z z f h z g c d z l j l d N &.&.-.V.h.V.M.S.b.A.g.u.C.V.g.m s c d t t f t d z 5 r 5 8 ; 5 9 5 3 4 6 c m A ",
"[ z A x l ) A t 5 9 1 7 d a z M A d q l g x d x m } -.&.} b.S.M.x.M.M.v.u.B.V.A d d A 9 A h T d 9 4 9 5 4 8 u p 0 h p 6 , p h h ",
"1.~ k.O.) ~ d y - % & 1 t 8 8 z f q f A c g i d l R ~ 8.Z B.B.8.&.M.x.1.u.x.;.&.I c c h h &.u.h t q A g h h b d e , 8 6 - , t 8 ",
"h ;.t.z e.l 7 7 % & : 7 9 f b b z z z >.x g u g l z -.&.z.V.V.r.c.4.d.V.4.A t.[ T ..Y m U u.p.T c m A i.5.b t S 6 4 p , 6 , , 9 ",
"L L ) ) v j q 7 X * 5 t y f z m N c J ) J c d l g -.h.g.v.V.V.-.c.v.u.V.V.S &.i.I [ u.-.@.u.i.i.&.5.@.u.1.b S &.p f 0 t , , t d ",
"g g d c d d d q $ * 9 z 9 t z } l J x i L z t i d N z N z.n.V.u.@.u.g.5.O.4.k.d.4.b.g.&.T &.&.5.i.i.i.c...i.i.A c A h h c u z t ",
"L g 9 s m A z u > 4 d f r q z } J c r i R l i i r j m ~ d.v.v.&.i.B.1.~ c.B.S.N.F.B.Z.u.N.1.i.N.B.v.B.&.c.L u.&.&.u.m m [ U 0 h ",
"L V p h x j w 5 9 4 [ b u a c h J t 9 i x z z d h S O.v } 0.@.S.T d.I i.H.V.V.H.D.H.J.F.B.c.S.M.B.B.B.B.N.z >.i.i.u.( ..&.A p c ",
"U d 9 d y 5 3 q 2 d &.&.c I z m d 9 t r j r N z ~ z.U Z ~ ( &.B.M.[ 4.g.S.d.k.B.r.u.S.B.x.i.B.g.@.p.Z.m.B.v h ] ;.U m A P b @.u.",
"z e t u t 8 q > 1 f N z d c b t 7 q l 3 t i l l ~ s.O.f.n.n.s.g.( @.z @.t.U ..1.N.V.u.B.c.B.S.v.p.Z.c.L c.r.L v ;.L g P U T c.L ",
"I c p 9 8 < 4 1 8 9 f c a p h d i t 3 3 i i y L _ +.r.4.c.V.n.g.4.A h c ;.L L u.&.A.>.u.B.D.N.x.Z.S.u.w...] L L w.U L Y 1.N.N.i.",
"A d u 4 1 5 8 9 6 9 h I m h c c L d 7 q t y d x _ +.6.v.C.g.S.d.k.L Y P T u.M...@.u.) g.f.l.k.u.t.r.t.J U r._ ..k.S.k.u.p.B.F.N.",
";.m i 9 ; 3 t d z e c A m g g d d r r 5 r l z l x N +.d.z.g.6.] L ] c c @.&.u.g.L 4.T [ d.c.O.t.t.L u.L _ k.*.t.S.D.f.b.u.B.k.u.",
"..c t t 6 9 9 9 z R c d z m z L d l 7 i y t i d z c z +.g.+.R z g L z Y ..U V.N.z [ ~ c n.V.&.u.v v w.U L v ..a.S.k.) f.6.a.f.r.",
"J ;.P t > 1 : 9 d Z N z M c z A L d u d i 7 i l v v L e.O.a.f.L l t v m Y N.C.S.g.4.J N >.d.&.u.l L .._ c L +.k.B.U R ..J v ) ) ",
"i.g.c q < 1 4 9 Z +.Z z ~ Z >.) g i g l t y e t i _ l ..! c.F.>.g g i d U T k.N.>.A ) R ) O.+.4.) ..] v l h P U ....) ..f m A J ",
"5.4.h , , 8 f A ~ z f d f 8.O.) g L L r 6 7 4 r l L z L e.g.c.6.;.g u J L U i.>.Z J 8.8.R ..k.O.m t.k...w...t.z _ J x x z d T >.",
"u.v.A w f f m h d M k d x ~ ~ z r d l g t r 7 d L W R c O.k.k.B.u.&.c P U t.U 4.r.) u.4.k.w.>.] L B.V.] r.>.N.c c L g t r c z -.",
"6.d.l.d.r.x [ h q z d z h z i d e l L l d g c v E L ] &.Z R 8.B.N...u.L >.L t.N.>.B.g.T t...k...z O.i.w...>...Y h A z e 5 9 u &.",
"] Z J +.+.+.O.A f A m t S l z i r d d d L L L x v ] ] W z c c B.N.c.c.t.L t.u.t.c.i.w.A r...z J ] v r.r.t.r.k...&...A z t q r z ",
"c _ ] ! >.>.w.I ) l ) j c z z u i u l r z L ..] +.v ~ z J >.r.u.1.c.B.B.B.u.D.i.b.O.A ..w...! U L L e...i.N.k.U L t.) z i l z i ",
"N ] c c ! 6.4.h.h.8.z u r f z c y i s c l d.] N z A @.~ } u.r.u.p.N.c.m.B.c.V.c.r.u.} >.L f.g.>.O.U ) r.r.N.t.t...A I z g z m N ",
"v O.} O.v g ) f.8.m A d z z z l 5 9 u z ~ d.+.z c i J 4.n.u.[ J 1.B.V.u.T [ i.&.v.N.O.Z >.J h...c -.Z A J w.L u.c.>.A m z z } c ",
"R 6.>.Z v g r.k.d.Z d g @...Z c d 7 d I m -.h.z y d N b.m A ] k.A u.c.D.[ b.B.c.N.c.c.@.g.F.t.T [ I ) A ] L A V.c.r...A R r z c ",
"g N -.] >.k.s.6.-.) z A u.T m ~ m c z z z z m N z N c A l J ] s.@.c.c.H.c.i.B.c.c.&.u.&.) A.;.&.m >.O.m z m l J b.t.c ) x r z j ",
"l t v ] n.n.Z } ..] y L r.>.N F N m d d d r r d i x i l c i v N v.N.S.V.c.u.N.S.g.f.D.B.u.m.&.z J v m U ) A >.J +...c c z j x i ",
"i x z a.V.f.8.N +.j c ] -.} b G } t d d 6 u Z l c x x L c l ] r.G.S.c.u.g.V.A.v.v.n.b.M.u.m.g.&.} T Z w.L L r.c c L L L c z z g ",
"l l ! k.V.v.+.c c ~ W +.W } c z z z d 7 t z g x c x x ] 8.J e.V.C.D.h.c.V.S.c.S.i.4.z.&.A 5.c.A ) t.O.B.+.m ;.g t c L L ..c i i ",
"x x k.k.r.k.} z i y d j +.N i 9 z c j d g d z L L ! L r.d.n.6.8.A.F.B.d.n.B.k.&.-.4.[ &.T &.i...b.c.4.>.>.r.O.O.z g d L W l i d ",
"v c a.k.w.a.) m i i d L a.] l t u } j z A z L z z ..] _ a.8.] ] s.l.k.v.r.V.k.+.r.g.u.N.i.A @.1.g.&.c.I h.f.t.! z z >.U J c z l ",
"+.z l L ..e._ 6.L x z v W v J z z >.A d O.m z l c z j E x z W +.N ] O.x N ) ] R L ) k.N.k.w.&.;.b.u.4.c J i.L ] ..t.L >.z d l x ",
"g l y l x z F N v g _ l v E i r Z j z i g L u g q f A ..>.E x v ) +.v v l d ) Z I c k.k.v.x ..+.V.V.N.4.&.O.A v L r.Y L c j x z ",
"_ c L x t l i i v i t z A t 7 5 t r z r i l i u l m ] c.k.z i l c +.h.6.m l l y O.z f J 6.v ] ..c.S.g.k.u.J N N _ U &.U v L W c ",
"] ] c v y x r t R i u i t r 5 7 r r q u g c J i u c O.g.+.v i z i x ] O.v z y z 4.g ..&.) ;.r.L ) &.c.V.e.e.c c c A O.} v d ..! ",
"] L +.] j 7 7 9 t y 9 r 5 1 4 q y 9 9 w J z L d h d I ~ s.v F z g z l L >.z i ) S 4.J ] ) N.h.w.m z r.V.e.] L +.L @.) ) _ x L f.",
"W z N a.v t q q t i z 5 7 r 7 9 6 4 2 w z A &.l Z 4.-.0.s.R z i d U g u.k.E ] r.u.u.A ..>.k.u.u.U c f.f.L v L ] U u.a.>.z f O.g.",
"x m i z 7 9 5 5 r i i 2 7 1 : 1 1 5 w t u z z g O.[ [ h.r.] z O...] L k.n.s.O.u.u.u.P P ) ..r.i.;.] O.) L v z Z u.8.] g.+.A x f.",
"d z a r 9 5 5 2 r q 1 - 2 @ @ # , 1 1 5 y q p h c c I &.[ &.6.] k.>.] +.;.N.c.>.k.U i.....N.t.c z g m L L L L L ! ! m B.k.>.z L ",
"9 q q u r 2 6 : 4 3 * = & @ . @ 1 > > 1 3 0 I [ h T b.g.V.D.B.V.b.O.Z 6.w.k.u...l.+...+.w.w.U L l d L ..] ..L L v l L w.B.k.U g ",
"q 4 1 t 8 5 r , 0 = + = = @ & 1 ; 1 r 6 9 t r d Z &.c.Z.@.Z @.#.z.z.d.d.k.c u J L r.B.N.N.k.c L l v x L L ..] l L L U ] >.k...z ",
", 4 f t 1 * t d d 5 & & % = @ ; 8 r f p i 7 u A A u b b G f @.@.g.u.h.n.V.v g v v v k.C.r.l.L L L ..z c g L L g c L v z v J k.u ",
"4 q u 2 5 & = 4 d 4 % ; % * * 1 p c V d 8 > < a t q f f M M @.z.#.[ c.f.N.w.L L ) L ..t.U +.L L r...v m z c ..A z t d 7 u h d e ",
"3 5 5 & ; 1 @ 1 u q > 1 ; 2 9 2 w h b d 0 > > > w y 2 a f b b z.[ -.m m U L _ w.L ..L U c _ L a.a.e.c d i r i m L e t d d g u 3 ",
"1 5 7 9 5 q 3 4 9 t 5 ; 1 1 u 1 2 d w @.z d 2 1 8 8 0 = 0 w f 3.u.N z r L L 4.l.e.U ] v L ..L k.N.l.] c ) z 9 m L g 9 s h h h 4 ",
"6 1 p , 9 q 4 9 6 1 0 t 9 u S t > w z w p 4 w = o @ = > a f w M n z t j L U k.k.+.L P L L ] w.] k.h.! z ~ A m c L z s d d t d t ",
"2 > 2 t 9 t 6 q 5 % ; r t d J z 1 8 > t 8 8 2 1 . . @ & 9 2 y z h V q q z v k.r.r.L z d L _ L l.B.p.B.s m m z b L L u 1 d 9 * 6 ",
"2 * 4 u q r 5 > 7 * > 1 0 k f d 0 8 > 8 8 1 = $   O > % * ; t N S d 0 u v ! L r.e.z W r.+.L c t.u.c.T &.m e s s q 9 ; * 8 ; & = ",
"8 < 4 u q i q t d 9 6 q 9 c u b 2 9 & > 2 8 > & o & 8 1 * 1 d z c u d z g d x +...L L ..+...+._ c.v.b m m h z d q 7 = $ & > u 8 ",
"w t t i f r 5 r f d q > 9 > m b q 1 - > > 2 = 1 * * q w a w i d z f g A c v c x z x g U _ i.+.+.-.) m h P t d h a i ; ; % @ 9 q ",
"0 t z Z z u t y t q a 9 8 w -.~ y d 4 > 5 1 1 q 4 , 8 8 t r d z >.-.] x ..O.i g v l z L J N.-.z s L Y c s f h P @.f t , > $ , 1 ",
"% ; t u f 4 5 9 1 9 t r 2 a n @.f z u 9 z f 9 f a p 5 a t z 6.c z O.x l x v i l v g L ! ;.c.R ~ U [ @.m s s z m p b 0 4 5 9 3 ; ",
"> & 9 z p 9 u t 2 : u i 9 9 k d d A 4 f l i 6 ~ y z z c ) k.>.! ..] _ z z f l ) A c z r u h &.S m m z m @.@.&.f 8 t e , p 6 8 8 ",
"8 1 p y 8 f d } u 4 p f I z k t z m d g u g t A m ) N &.>.s.f.+.L c y t y d z r.r.O...L z A ~ d h d t p 0 @.V b , d b s e 6 > , "
};
